 <svg
      xmlns="http://www.w3.org/2000/svg"
      width="30.031"
      height="30.031"
      viewBox="0 0 30.031 30.031"
    >
      <path fill="#fff"
        class="a"
        d="M15.5-26.641A15.018,15.018,0,0,0,.484-11.625,15.015,15.015,0,0,0,15.5,3.391,15.015,15.015,0,0,0,30.516-11.625,15.018,15.018,0,0,0,15.5-26.641ZM15.5.484A12.1,12.1,0,0,1,3.391-11.625,12.105,12.105,0,0,1,15.5-23.734,12.105,12.105,0,0,1,27.609-11.625,12.1,12.1,0,0,1,15.5.484Zm6.493-15.452c0-3.057-3.171-5.377-6.142-5.377a6.806,6.806,0,0,0-6.089,3.281.728.728,0,0,0,.16.991l1.685,1.277a.727.727,0,0,0,1.009-.129c.911-1.15,1.559-1.815,2.963-1.815,1.077,0,2.409.693,2.409,1.737,0,.789-.652,1.195-1.715,1.791-1.24.7-2.881,1.56-2.881,3.725v.524a.727.727,0,0,0,.727.727h2.764a.727.727,0,0,0,.727-.727v-.384C17.608-10.845,21.993-10.907,21.993-14.967ZM18.043-4.844A2.546,2.546,0,0,0,15.5-7.387a2.546,2.546,0,0,0-2.543,2.543A2.546,2.546,0,0,0,15.5-2.3,2.546,2.546,0,0,0,18.043-4.844Z"
        transform="translate(-0.484 26.641)"
      />
    </svg>